# xmcd
#
# Track frame offsets:
#	150
#	8020
#	18109
#	27119
#	37496
#	47754
#	57736
#	69676
#	78738
#	88638
#	100769
#	110752
#	121996
#	131219
#	141918
#	154357
#	164032
#	176810
#	185709
#	196228
#	209068
#	221309
#	233117
#	243463
#
# Disc length: 3363 seconds
#
# Revision: 0
# Processed by: cddbd v1.5.2PL0 Copyright (c) Steve Scherf et al.
# Submitted via: EZCDAudioConverter 1.0.8.1
#
DISCID=6f0d2118
DTITLE=Wanda Jackson - In the Middle of a Heartache: Classic Album Collection 
DTITLE=cd1
DYEAR=2012
DGENRE=
TTITLE0=Rock Your Baby (Rockin' with Wanda)
TTITLE1=Fujiyama Mama (Rockin' with Wanda)
TTITLE2=You're the One For Me (Rockin' with Wanda)
TTITLE3=Did You Miss Me (Rockin' with Wanda)
TTITLE4=Cool Love (Rockin' with Wanda)
TTITLE5=Honey Bop (Rockin' with Wanda)
TTITLE6=Hot Dog! That Made Him Mad (Rockin' with Wanda)
TTITLE7=Baby Loves Him (Rockin' with Wanda)
TTITLE8=Mean Mean Man (Rockin' with Wanda)
TTITLE9=You've Turned To a Stranger (Rockin' with Wanda)
TTITLE10=Don'a Wan'a (Rockin' with Wanda)
TTITLE11=I Gotta Know (Rockin' with Wanda)
TTITLE12=	\nThere's a Party Goin' On (There's a Party Goin' On)
TTITLE13=Lonely Weekends (There's a Party Goin' On)
TTITLE14=Kansas City (There's a Party Goin' On)
TTITLE15=Baby, Baby, Bye Bye (Bye Bye Baby) (There's a Party Goin' On)
TTITLE16=Fallin' (There's a Party Goin' On)
TTITLE17=Hard Headed Woman (There's a Party Goin' On)
TTITLE18=Tongue Tied (There's a Party Goin' On)
TTITLE19=It Doesn't Matter Anymore (There's a Party Goin' On)
TTITLE20=	\nTweedle Dee  (There's a Party Goin' On)
TTITLE21=Sparkling Brown Eyes (There's a Party Goin' On)
TTITLE22=Lost Weekend (There's a Party Goin' On)
TTITLE23=Man We Had a Party (There's a Party Goin' On)
EXTD=
EXTT0=
EXTT1=
EXTT2=
EXTT3=
EXTT4=
EXTT5=
EXTT6=
EXTT7=
EXTT8=
EXTT9=
EXTT10=
EXTT11=
EXTT12=
EXTT13=
EXTT14=
EXTT15=
EXTT16=
EXTT17=
EXTT18=
EXTT19=
EXTT20=
EXTT21=
EXTT22=
EXTT23=
PLAYORDER=
